<svg xmlns="http://www.w3.org/2000/svg" xmlns:xlink="http://www.w3.org/1999/xlink" width="500" zoomAndPan="magnify" viewBox="0 0 375 374.999991" height="500" preserveAspectRatio="xMidYMid meet" version="1.0"><defs><clipPath id="7179a84d5a"><path d="M 109.835938 111 L 265.085938 111 L 265.085938 205 L 109.835938 205 Z M 109.835938 111 " clip-rule="nonzero"/></clipPath></defs><path fill="#606060" d="M 202.300781 264 C 193.730469 263.96875 185.347656 262.699219 177.152344 260.199219 C 163.261719 255.972656 153.101562 249.019531 149.972656 241.589844 C 147.804688 236.453125 147.960938 228.667969 161.015625 220.777344 C 184.003906 206.878906 166.886719 166.527344 156.664062 142.417969 C 151.492188 130.230469 149.097656 124.320312 151.109375 123.136719 C 152.667969 122.21875 155.078125 123.558594 158.480469 127.238281 C 161.335938 130.328125 164.84375 134.988281 169.203125 141.488281 C 177.15625 153.335938 186.125 168.59375 194.039062 182.054688 L 195.996094 185.378906 C 198.765625 190.085938 202.035156 192.152344 206.273438 191.878906 C 210.054688 191.632812 214.164062 189.519531 218.132812 187.480469 C 223.957031 184.488281 229.976562 181.386719 235.117188 184.148438 C 241.214844 187.425781 245.101562 198.371094 247.347656 218.574219 C 248.691406 230.664062 246.542969 240.636719 240.96875 248.210938 C 236.089844 254.84375 228.753906 259.472656 219.171875 261.972656 C 213.96875 263.328125 208.25 264 202.300781 264 Z M 152.195312 123.570312 C 151.9375 123.566406 151.695312 123.628906 151.472656 123.757812 C 151.023438 124.023438 150.777344 125.195312 152.148438 129.265625 C 153.25 132.53125 155.136719 136.984375 157.324219 142.140625 C 167.640625 166.464844 184.910156 207.171875 161.386719 221.390625 C 151.402344 227.429688 147.683594 234.316406 150.632812 241.3125 C 153.679688 248.539062 163.671875 255.339844 177.367188 259.503906 C 184.160156 261.558594 191.097656 262.777344 198.179688 263.160156 C 205.703125 263.550781 212.707031 262.917969 219 261.277344 C 228.410156 258.820312 235.613281 254.28125 240.386719 247.78125 C 245.847656 240.359375 247.949219 230.558594 246.625 218.652344 C 245.445312 208.042969 243.828125 200.117188 241.675781 194.421875 C 239.785156 189.421875 237.523438 186.28125 234.769531 184.785156 C 229.953125 182.203125 224.375 185.078125 218.457031 188.121094 C 214.417969 190.195312 210.242188 192.34375 206.3125 192.605469 C 206.058594 192.621094 205.804688 192.632812 205.554688 192.632812 C 201.425781 192.632812 198.089844 190.375 195.371094 185.753906 L 193.410156 182.429688 C 185.503906 168.972656 176.539062 153.730469 168.601562 141.890625 C 162.867188 133.335938 155.574219 123.570312 152.195312 123.570312 Z M 152.195312 123.570312 " fill-opacity="1" fill-rule="nonzero"/><path fill="#606060" d="M 200.253906 259.136719 C 190.890625 259.105469 181.742188 257.679688 172.8125 254.863281 C 159.03125 250.511719 149.210938 243.648438 146.550781 236.503906 C 144.753906 231.675781 145.339844 224.410156 158.339844 217.230469 C 182.683594 203.757812 168.957031 168.1875 159.875 144.652344 C 155.585938 133.542969 152.492188 125.515625 154.683594 123.164062 C 154.929688 122.890625 155.222656 122.691406 155.570312 122.566406 C 155.914062 122.441406 156.269531 122.40625 156.628906 122.457031 C 158.421875 122.648438 160.878906 124.5625 164.144531 128.316406 C 166.941406 131.535156 170.257812 136 174.273438 141.976562 C 181.609375 152.878906 189.625 166.324219 196.691406 178.195312 L 199.066406 182.175781 C 201.660156 186.554688 204.808594 188.550781 208.96875 188.464844 C 212.667969 188.382812 216.710938 186.625 220.617188 184.925781 C 226.359375 182.433594 232.292969 179.851562 237.054688 182.785156 C 242.75 186.28125 245.9375 197.042969 247.09375 216.644531 C 247.785156 228.34375 244.964844 237.898438 238.707031 245.054688 C 233.246094 251.304688 225.363281 255.546875 215.285156 257.671875 C 210.324219 258.679688 205.316406 259.167969 200.253906 259.136719 Z M 156.332031 123.152344 C 155.875 123.144531 155.5 123.308594 155.199219 123.648438 C 153.316406 125.671875 156.664062 134.347656 160.535156 144.386719 C 165.117188 156.253906 170.816406 171.023438 172.339844 184.6875 C 173.171875 192.132812 172.644531 198.566406 170.769531 203.808594 C 168.589844 209.894531 164.523438 214.621094 158.679688 217.855469 C 148.75 223.347656 144.789062 229.710938 147.21875 236.257812 C 149.800781 243.195312 159.449219 249.898438 173.023438 254.183594 C 187.089844 258.621094 202.441406 259.632812 215.144531 256.953125 C 225.066406 254.863281 232.816406 250.691406 238.175781 244.566406 C 244.300781 237.5625 247.0625 228.179688 246.382812 216.675781 C 245.777344 206.375 244.617188 198.652344 242.835938 193.050781 C 241.269531 188.125 239.257812 184.964844 236.691406 183.382812 C 232.238281 180.648438 226.726562 183.042969 220.914062 185.574219 C 216.933594 187.296875 212.820312 189.089844 208.984375 189.164062 C 204.597656 189.253906 201.152344 187.089844 198.449219 182.519531 C 197.671875 181.230469 196.882812 179.902344 196.078125 178.542969 C 189.007812 166.691406 180.996094 153.257812 173.671875 142.371094 C 165.3125 129.941406 159.550781 123.484375 156.546875 123.164062 C 156.472656 123.15625 156.402344 123.152344 156.332031 123.152344 Z M 156.332031 123.152344 " fill-opacity="1" fill-rule="nonzero"/><path fill="#606060" d="M 198.347656 254.308594 C 188.101562 254.277344 178.101562 252.675781 168.359375 249.503906 C 154.832031 245.0625 145.441406 238.347656 143.230469 231.535156 C 141.761719 227.003906 142.722656 220.222656 155.648438 213.664062 C 167.082031 207.863281 172.378906 198.035156 171.839844 183.617188 C 171.378906 171.21875 166.613281 157.445312 162.785156 146.375 C 158.988281 135.410156 155.992188 126.738281 158.28125 123.15625 C 158.8125 122.324219 159.542969 121.90625 160.453125 121.914062 C 162.28125 121.941406 164.800781 123.753906 168.140625 127.457031 C 170.984375 130.613281 174.351562 135.042969 178.425781 140.992188 C 185.832031 151.816406 194.054688 165.484375 200.660156 176.460938 L 202.136719 178.921875 C 204.566406 182.953125 207.59375 184.875 211.664062 184.964844 C 215.277344 185.046875 219.242188 183.636719 223.074219 182.285156 C 229.015625 180.175781 234.628906 178.1875 239.050781 181.308594 C 244.339844 185.039062 246.824219 195.644531 246.855469 214.679688 C 246.875 226.046875 243.316406 235.222656 236.269531 241.953125 C 230.136719 247.8125 221.605469 251.648438 210.914062 253.347656 C 206.75 253.996094 202.5625 254.316406 198.347656 254.308594 Z M 160.414062 122.632812 C 159.777344 122.632812 159.277344 122.929688 158.886719 123.539062 C 156.785156 126.828125 159.882812 135.777344 163.464844 146.136719 C 167.308594 157.246094 172.097656 171.078125 172.558594 183.585938 C 172.816406 190.476562 171.785156 196.214844 169.402344 201.128906 C 166.699219 206.71875 162.179688 211.152344 155.96875 214.300781 C 146.097656 219.308594 141.929688 225.191406 143.914062 231.3125 C 146.050781 237.902344 155.269531 244.445312 168.578125 248.8125 C 178.25 251.964844 188.171875 253.554688 198.34375 253.585938 C 202.523438 253.597656 206.679688 253.28125 210.808594 252.640625 C 221.351562 250.960938 229.753906 247.191406 235.78125 241.433594 C 242.675781 234.847656 246.164062 225.847656 246.140625 214.683594 C 246.121094 204.691406 245.429688 197.148438 244.023438 191.625 C 242.789062 186.769531 241.035156 183.585938 238.632812 181.898438 C 234.515625 178.992188 229.074219 180.921875 223.308594 182.964844 C 219.417969 184.34375 215.390625 185.769531 211.644531 185.691406 C 207.363281 185.59375 204.054688 183.503906 201.515625 179.296875 L 200.035156 176.835938 C 193.441406 165.863281 185.230469 152.203125 177.832031 141.40625 C 169.332031 128.988281 163.484375 122.675781 160.441406 122.632812 Z M 160.414062 122.632812 " fill-opacity="1" fill-rule="nonzero"/><path fill="#606060" d="M 196.609375 249.507812 C 185.652344 249.507812 174.070312 247.625 163.710938 244.074219 C 157.449219 241.933594 151.996094 239.257812 147.933594 236.355469 C 143.589844 233.25 140.917969 229.992188 140 226.679688 C 137.867188 218.964844 145.875 213.410156 152.96875 210.109375 C 165.214844 204.40625 171.453125 195.261719 172.046875 182.152344 C 172.554688 170.789062 168.816406 158.445312 165.511719 147.554688 C 162.324219 137.046875 159.574219 127.972656 161.90625 123.140625 C 162.46875 121.976562 163.289062 121.363281 164.347656 121.3125 L 164.484375 121.3125 C 172.085938 121.3125 190.292969 151.21875 203.609375 173.078125 L 205.207031 175.703125 C 210.164062 183.824219 217.925781 181.699219 225.441406 179.644531 C 231.371094 178.019531 236.972656 176.488281 241.074219 179.824219 C 245.980469 183.808594 247.746094 194.277344 246.625 212.746094 C 245.953125 223.859375 241.558594 232.683594 233.5625 238.996094 C 226.722656 244.375 217.136719 247.851562 205.847656 249.039062 C 202.777344 249.355469 199.695312 249.511719 196.609375 249.507812 Z M 164.5 122.027344 L 164.386719 122.027344 C 163.597656 122.066406 163 122.527344 162.558594 123.453125 C 160.347656 128.03125 163.058594 136.980469 166.203125 147.34375 C 169.523438 158.289062 173.28125 170.695312 172.765625 182.179688 C 172.160156 195.582031 165.78125 204.929688 153.269531 210.757812 C 143.460938 215.324219 139.109375 220.761719 140.695312 226.484375 C 142.40625 232.671875 151.097656 238.992188 163.941406 243.394531 C 177.179688 247.929688 192.425781 249.726562 205.773438 248.324219 C 239.019531 244.824219 245.183594 224.503906 245.902344 212.703125 L 246.257812 212.722656 L 245.902344 212.703125 C 246.488281 203.003906 246.277344 195.636719 245.25 190.1875 C 244.351562 185.390625 242.832031 182.183594 240.613281 180.378906 C 236.792969 177.277344 231.367188 178.761719 225.621094 180.335938 C 221.820312 181.375 217.886719 182.453125 214.253906 182.207031 C 210.105469 181.925781 206.949219 179.917969 204.59375 176.070312 L 202.996094 173.445312 C 196.632812 163 188.714844 149.996094 181.496094 139.683594 C 173.300781 127.964844 167.574219 122.027344 164.5 122.027344 Z M 164.5 122.027344 " fill-opacity="1" fill-rule="nonzero"/><path fill="#606060" d="M 195.050781 244.746094 C 182.84375 244.746094 169.871094 242.550781 158.777344 238.550781 C 146.21875 234.023438 138.21875 227.960938 136.828125 221.917969 C 135.167969 214.679688 143.222656 209.570312 150.277344 206.554688 C 163.441406 200.925781 170.640625 192.386719 172.289062 180.449219 C 173.722656 170.027344 170.753906 158.46875 168.136719 148.273438 C 165.496094 138.015625 163.222656 129.152344 165.542969 123.121094 C 166.132812 121.578125 167.058594 120.742188 168.285156 120.628906 C 168.375 120.628906 168.46875 120.613281 168.5625 120.613281 C 176.273438 120.613281 193.621094 148.714844 206.332031 169.316406 C 206.996094 170.398438 207.648438 171.449219 208.277344 172.472656 C 212.820312 179.824219 220.390625 178.363281 227.707031 176.949219 C 233.683594 175.796875 239.320312 174.710938 243.132812 178.296875 C 247.667969 182.554688 248.6875 192.886719 246.363281 210.808594 L 246.007812 210.761719 L 246.363281 210.808594 C 244.945312 221.753906 239.578125 230.269531 230.410156 236.117188 C 222.617188 241.09375 212.035156 244.035156 199.796875 244.628906 C 198.234375 244.707031 196.648438 244.746094 195.050781 244.746094 Z M 168.578125 121.332031 C 168.503906 121.332031 168.425781 121.335938 168.351562 121.34375 C 167.40625 121.429688 166.707031 122.097656 166.210938 123.378906 C 163.976562 129.195312 166.226562 137.953125 168.832031 148.097656 C 174.125 168.699219 180.710938 194.328125 150.566406 207.210938 C 140.8125 211.378906 136.308594 216.40625 137.535156 221.753906 C 138.207031 224.675781 140.511719 227.605469 144.386719 230.464844 C 148.082031 233.1875 153.144531 235.75 159.027344 237.871094 C 171.484375 242.355469 186.332031 244.5625 199.769531 243.910156 C 211.878906 243.324219 222.351562 240.421875 230.035156 235.511719 C 239.015625 229.785156 244.273438 221.441406 245.664062 210.714844 C 246.882812 201.3125 247.15625 194.121094 246.527344 188.734375 C 245.96875 183.988281 244.703125 180.742188 242.644531 178.8125 C 239.101562 175.476562 233.636719 176.535156 227.847656 177.648438 C 224.148438 178.363281 220.324219 179.101562 216.824219 178.703125 C 212.820312 178.246094 209.820312 176.332031 207.671875 172.847656 C 207.042969 171.828125 206.394531 170.777344 205.726562 169.691406 C 199.625 159.8125 192.035156 147.519531 185.058594 137.785156 C 177.230469 126.863281 171.691406 121.332031 168.578125 121.332031 Z M 168.578125 121.332031 " fill-opacity="1" fill-rule="nonzero"/><path fill="#606060" d="M 193.648438 240.011719 C 193.238281 240.011719 192.828125 240.011719 192.414062 240.011719 C 179.097656 239.859375 164.902344 237.257812 153.472656 232.867188 C 141.929688 228.433594 134.726562 222.730469 133.722656 217.234375 C 133.035156 213.488281 134.882812 207.980469 147.59375 203 C 161.800781 197.429688 169.988281 189.445312 172.625 178.59375 C 174.949219 169.035156 172.800781 158.65625 170.726562 148.617188 C 168.769531 139.15625 166.921875 130.222656 169.183594 123.09375 C 169.808594 121.125 170.84375 120.035156 172.242188 119.855469 C 179.832031 118.886719 196.671875 145.792969 208.964844 165.433594 C 209.792969 166.753906 210.585938 168.027344 211.347656 169.242188 C 215.476562 175.796875 222.800781 174.964844 229.886719 174.167969 C 235.972656 173.484375 241.71875 172.839844 245.265625 176.722656 C 249.433594 181.292969 249.703125 191.507812 246.125 208.871094 C 243.878906 219.753906 237.332031 227.976562 226.671875 233.332031 C 217.949219 237.707031 206.546875 240.011719 193.648438 240.011719 Z M 172.667969 120.546875 C 172.558594 120.546875 172.445312 120.554688 172.335938 120.566406 C 171.214844 120.710938 170.410156 121.605469 169.867188 123.308594 C 167.664062 130.257812 169.496094 139.101562 171.429688 148.464844 C 175.550781 168.390625 180.222656 190.976562 147.851562 203.664062 C 138.15625 207.464844 133.511719 212.113281 134.425781 217.101562 C 135.386719 222.351562 142.421875 227.851562 153.726562 232.191406 C 165.078125 236.550781 179.183594 239.132812 192.417969 239.285156 C 205.714844 239.4375 217.445312 237.152344 226.34375 232.691406 C 236.796875 227.445312 243.214844 219.382812 245.414062 208.726562 L 245.765625 208.796875 L 245.414062 208.726562 C 247.289062 199.625 248.085938 192.609375 247.847656 187.269531 C 247.632812 182.566406 246.613281 179.273438 244.726562 177.207031 C 241.425781 173.589844 235.859375 174.214844 229.960938 174.878906 C 222.65625 175.710938 215.09375 176.558594 210.734375 169.617188 C 209.972656 168.402344 209.175781 167.125 208.347656 165.808594 C 202.523438 156.503906 195.277344 144.917969 188.578125 135.789062 C 181.136719 125.671875 175.789062 120.546875 172.667969 120.546875 Z M 172.667969 120.546875 " fill-opacity="1" fill-rule="nonzero"/><path fill="#606060" d="M 192.511719 235.316406 C 189.1875 235.316406 186.085938 235.175781 183.324219 234.972656 C 170.640625 234.023438 157.664062 231.105469 147.710938 226.96875 C 137.390625 222.675781 131.332031 217.582031 130.660156 212.625 C 130.328125 210.179688 131.308594 207.835938 133.570312 205.664062 C 135.949219 203.378906 139.757812 201.289062 144.902344 199.441406 C 153.171875 196.46875 159.515625 193.042969 164.28125 188.972656 C 168.511719 185.363281 171.394531 181.320312 173.101562 176.617188 C 176.28125 167.863281 174.785156 158.066406 173.335938 148.59375 C 172.023438 140 170.664062 131.113281 172.820312 123.058594 C 173.476562 120.609375 174.617188 119.246094 176.214844 119 C 183.804688 117.839844 199.851562 143.09375 211.566406 161.535156 C 212.5625 163.101562 213.515625 164.605469 214.417969 166.019531 C 218.105469 171.789062 225.148438 171.546875 231.964844 171.316406 C 238.242188 171.097656 244.167969 170.894531 247.46875 175.148438 C 251.277344 180.054688 250.769531 190.160156 245.867188 206.949219 L 245.523438 206.851562 L 245.867188 206.949219 C 245.0625 209.746094 243.90625 212.382812 242.394531 214.867188 C 240.882812 217.351562 239.070312 219.59375 236.957031 221.589844 C 233.046875 225.316406 228.042969 228.34375 222.078125 230.589844 C 212.324219 234.257812 201.601562 235.316406 192.511719 235.316406 Z M 176.757812 119.683594 C 176.613281 119.683594 176.46875 119.691406 176.328125 119.714844 C 175.039062 119.910156 174.09375 121.097656 173.519531 123.246094 C 171.402344 131.15625 172.75 139.964844 174.050781 148.484375 C 175.511719 158.046875 177.023438 167.9375 173.78125 176.867188 C 172.03125 181.683594 169.078125 185.828125 164.753906 189.519531 C 159.914062 193.652344 153.503906 197.117188 145.15625 200.121094 C 135.511719 203.585938 130.75 207.875 131.375 212.53125 C 132.003906 217.152344 138.058594 222.167969 147.988281 226.304688 C 157.875 230.417969 170.773438 233.316406 183.382812 234.257812 C 193.628906 235.023438 208.621094 234.886719 221.832031 229.90625 C 234.203125 225.242188 242.058594 217.445312 245.1875 206.738281 C 247.753906 197.949219 249.082031 191.101562 249.25 185.804688 C 249.394531 181.140625 248.628906 177.792969 246.910156 175.574219 C 243.832031 171.609375 238.082031 171.808594 231.996094 172.015625 C 224.980469 172.257812 217.726562 172.503906 213.816406 166.390625 C 212.914062 164.980469 211.960938 163.480469 210.964844 161.90625 C 205.402344 153.164062 198.484375 142.277344 192.0625 133.75 C 185.019531 124.40625 179.875 119.679688 176.757812 119.679688 Z M 176.757812 119.683594 " fill-opacity="1" fill-rule="nonzero"/><path fill="#606060" d="M 191.488281 230.671875 C 185.066406 230.660156 178.675781 230.195312 172.316406 229.285156 C 160.707031 227.632812 149.765625 224.632812 141.503906 220.8125 C 132.949219 216.863281 128.015625 212.347656 127.632812 208.085938 C 127.429688 205.785156 128.507812 203.597656 130.835938 201.589844 C 133.28125 199.484375 137.097656 197.5625 142.21875 195.886719 C 179.445312 183.652344 177.863281 167.21875 176.039062 148.1875 C 175.261719 140.109375 174.460938 131.753906 176.46875 123.019531 C 177.152344 120.050781 178.40625 118.382812 180.199219 118.070312 C 187.765625 116.738281 203.03125 140.390625 214.179688 157.664062 C 215.351562 159.480469 216.457031 161.191406 217.488281 162.777344 C 220.738281 167.761719 227.453125 168.042969 233.9375 168.316406 C 240.214844 168.582031 246.699219 168.859375 249.765625 173.550781 C 253.214844 178.828125 251.898438 188.824219 245.613281 205.003906 L 245.28125 204.875 L 245.613281 205.003906 C 243.382812 210.753906 239.578125 215.652344 234.304688 219.5625 C 229.511719 223.113281 223.484375 225.875 216.394531 227.742188 C 209.050781 229.6875 200.546875 230.671875 191.488281 230.671875 Z M 180.84375 118.730469 C 180.667969 118.730469 180.496094 118.746094 180.324219 118.777344 C 178.84375 119.035156 177.78125 120.519531 177.167969 123.179688 C 175.1875 131.800781 175.984375 140.097656 176.753906 148.121094 C 177.671875 157.675781 178.535156 166.699219 174.429688 174.886719 C 169.855469 184.011719 159.691406 190.898438 142.445312 196.566406 C 132.84375 199.722656 127.964844 203.683594 128.355469 208.027344 C 128.707031 212.015625 133.484375 216.335938 141.804688 220.171875 C 150.003906 223.953125 160.878906 226.941406 172.417969 228.582031 C 188.378906 230.847656 203.933594 230.308594 216.214844 227.054688 C 223.21875 225.203125 229.160156 222.492188 233.882812 218.992188 C 239.042969 215.171875 242.769531 210.375 244.949219 204.753906 C 248.234375 196.292969 250.117188 189.632812 250.707031 184.378906 C 251.226562 179.746094 250.722656 176.335938 249.167969 173.949219 C 246.300781 169.570312 240.28125 169.3125 233.910156 169.042969 C 227.238281 168.761719 220.339844 168.46875 216.890625 163.175781 C 215.855469 161.59375 214.75 159.878906 213.566406 158.0625 C 208.269531 149.851562 201.675781 139.636719 195.527344 131.691406 C 188.882812 123.085938 183.945312 118.730469 180.84375 118.730469 Z M 180.84375 118.730469 " fill-opacity="1" fill-rule="nonzero"/><path fill="#606060" d="M 190.925781 226.089844 C 180.433594 226.066406 170.058594 224.957031 159.796875 222.769531 C 150.09375 220.691406 141.3125 217.738281 135.066406 214.449219 C 128.394531 210.929688 124.792969 207.183594 124.644531 203.609375 C 124.558594 201.449219 125.722656 199.414062 128.105469 197.554688 C 130.597656 195.613281 134.4375 193.855469 139.527344 192.332031 C 149.449219 189.355469 157.128906 186.246094 162.992188 182.832031 C 168.355469 179.703125 172.203125 176.316406 174.746094 172.464844 C 179.5625 165.175781 179.25 156.910156 178.882812 147.335938 C 178.605469 140.167969 178.292969 132.050781 180.109375 122.980469 C 180.816406 119.441406 182.183594 117.453125 184.175781 117.066406 C 191.691406 115.605469 206.207031 137.710938 216.804688 153.851562 C 218.144531 155.890625 219.40625 157.816406 220.5625 159.546875 C 223.375 163.761719 229.695312 164.492188 235.796875 165.195312 C 242.441406 165.964844 249.324219 166.765625 252.152344 171.984375 C 253.625 174.699219 253.882812 178.335938 252.941406 183.105469 C 251.898438 188.382812 249.417969 194.910156 245.363281 203.066406 L 245.042969 202.898438 L 245.363281 203.066406 C 242.445312 208.933594 237.660156 213.792969 231.140625 217.5 C 225.269531 220.835938 218.007812 223.246094 209.5625 224.644531 C 203.796875 225.617188 197.492188 226.089844 190.925781 226.089844 Z M 184.949219 117.710938 C 184.738281 117.710938 184.527344 117.730469 184.320312 117.773438 C 182.640625 118.105469 181.460938 119.898438 180.820312 123.121094 C 179.019531 132.101562 179.324219 140.179688 179.605469 147.308594 C 180.351562 166.683594 180.890625 180.679688 139.738281 193.019531 C 130.175781 195.886719 125.207031 199.539062 125.367188 203.582031 C 125.5 206.882812 128.972656 210.421875 135.398438 213.804688 C 141.582031 217.066406 150.308594 219.992188 159.945312 222.058594 C 176.863281 225.679688 194.90625 226.367188 209.441406 223.949219 C 217.800781 222.554688 224.984375 220.175781 230.78125 216.882812 C 237.175781 213.246094 241.867188 208.492188 244.71875 202.757812 C 252.214844 187.679688 254.4375 177.730469 251.527344 172.339844 C 248.871094 167.449219 242.1875 166.675781 235.71875 165.921875 C 229.449219 165.195312 222.964844 164.441406 219.96875 159.953125 C 218.804688 158.222656 217.546875 156.296875 216.210938 154.253906 C 206.59375 139.613281 192.21875 117.710938 184.949219 117.710938 Z M 184.949219 117.710938 " fill-opacity="1" fill-rule="nonzero"/><path fill="#606060" d="M 190.671875 221.613281 C 175.34375 221.613281 159.644531 219.183594 147.113281 215.542969 C 131.144531 210.910156 121.640625 204.796875 121.6875 199.199219 C 121.722656 195.015625 126.820312 191.511719 136.847656 188.777344 C 181.484375 176.601562 181.644531 166.347656 181.96875 145.898438 C 182.070312 139.320312 182.1875 131.859375 183.757812 122.9375 C 184.488281 118.792969 185.96875 116.457031 188.164062 115.996094 C 195.59375 114.425781 209.375 135.042969 219.4375 150.089844 C 220.941406 152.339844 222.363281 154.464844 223.628906 156.3125 C 226.007812 159.789062 231.597656 160.832031 237.527344 161.933594 C 244.667969 163.261719 252.046875 164.640625 254.632812 170.492188 C 255.914062 173.40625 255.878906 177.117188 254.519531 181.839844 C 253.011719 187.070312 249.933594 193.382812 245.109375 201.140625 C 235.757812 216.15625 213.636719 221.613281 190.671875 221.613281 Z M 189.023438 116.628906 C 188.78125 116.625 188.546875 116.648438 188.3125 116.699219 C 186.433594 117.09375 185.140625 119.234375 184.464844 123.0625 C 182.90625 131.925781 182.789062 139.355469 182.683594 145.910156 C 182.527344 156.035156 182.402344 164.03125 176.625 170.84375 C 173.644531 174.355469 169.214844 177.488281 163.082031 180.414062 C 156.660156 183.480469 148.136719 186.441406 137.035156 189.472656 C 127.496094 192.078125 122.4375 195.4375 122.40625 199.207031 C 122.363281 204.382812 131.910156 210.378906 147.316406 214.855469 C 164.378906 219.808594 184.777344 221.894531 201.875 220.433594 C 228.394531 218.164062 239.6875 208.480469 244.492188 200.757812 L 244.796875 200.949219 L 244.492188 200.757812 C 253.425781 186.398438 256.523438 176.59375 253.964844 170.78125 C 251.542969 165.277344 244.351562 163.9375 237.394531 162.640625 C 231.324219 161.507812 225.585938 160.4375 223.035156 156.71875 C 221.765625 154.863281 220.347656 152.738281 218.839844 150.492188 C 209.765625 136.917969 196.203125 116.628906 189.023438 116.628906 Z M 189.023438 116.628906 " fill-opacity="1" fill-rule="nonzero"/><path fill="#606060" d="M 190.828125 217.230469 C 181.425781 217.203125 172.082031 216.433594 162.796875 214.929688 C 152.824219 213.320312 143.535156 210.980469 135.949219 208.160156 C 124.605469 203.945312 118.5 199.222656 118.742188 194.851562 C 118.964844 190.933594 124.148438 187.695312 134.160156 185.222656 C 159.253906 179.027344 171.496094 174.300781 177.832031 168.375 C 184.210938 162.402344 184.667969 154.945312 185.359375 143.660156 C 185.71875 137.765625 186.128906 131.082031 187.40625 122.894531 C 188.15625 118.105469 189.75 115.402344 192.140625 114.863281 C 199.464844 113.203125 212.535156 132.378906 222.078125 146.371094 C 223.746094 148.824219 225.328125 151.136719 226.699219 153.082031 C 228.660156 155.859375 233.742188 157.144531 239.128906 158.503906 C 246.511719 160.371094 254.878906 162.492188 257.167969 169.082031 C 259.425781 175.585938 255.394531 185.4375 244.835938 199.207031 L 244.550781 198.984375 L 244.835938 199.207031 C 240.3125 205.109375 233.253906 209.65625 223.863281 212.714844 C 215.558594 215.425781 205.613281 216.929688 194.304688 217.191406 C 193.15625 217.21875 192 217.230469 190.828125 217.230469 Z M 193.089844 115.488281 C 192.820312 115.484375 192.558594 115.515625 192.296875 115.574219 C 190.21875 116.042969 188.808594 118.546875 188.113281 123.011719 C 186.839844 131.167969 186.433594 137.832031 186.074219 143.714844 C 185.371094 155.175781 184.910156 162.738281 178.320312 168.90625 C 171.886719 174.929688 159.554688 179.707031 134.332031 185.929688 C 124.8125 188.273438 119.664062 191.375 119.460938 194.890625 C 119.234375 198.859375 125.335938 203.449219 136.199219 207.484375 C 143.746094 210.289062 152.984375 212.621094 162.914062 214.21875 C 173.480469 215.925781 184.332031 216.710938 194.296875 216.472656 C 205.53125 216.214844 215.40625 214.71875 223.644531 212.035156 C 232.894531 209.019531 239.835938 204.558594 244.273438 198.769531 C 254.667969 185.207031 258.664062 175.574219 256.492188 169.316406 C 254.335938 163.089844 246.164062 161.023438 238.957031 159.203125 C 233.441406 157.804688 228.230469 156.488281 226.113281 153.496094 C 224.734375 151.546875 223.15625 149.230469 221.484375 146.777344 C 212.917969 134.21875 200.140625 115.488281 193.089844 115.488281 Z M 193.089844 115.488281 " fill-opacity="1" fill-rule="nonzero"/><path fill="#606060" d="M 191.363281 212.976562 C 190.035156 212.976562 188.695312 212.960938 187.339844 212.929688 C 165.585938 212.429688 141.375 207.699219 127.085938 201.15625 C 119.347656 197.617188 115.449219 193.953125 115.808594 190.5625 C 116.195312 186.886719 121.464844 183.894531 131.472656 181.667969 C 159.980469 175.328125 173.03125 171.828125 180.039062 166.5625 C 187.179688 161.195312 187.859375 153.785156 189.109375 140.335938 C 189.574219 135.320312 190.105469 129.640625 191.050781 122.847656 C 191.824219 117.316406 193.476562 114.304688 196.105469 113.675781 C 199.320312 112.902344 203.808594 115.890625 209.832031 122.796875 C 214.914062 128.636719 220.335938 136.421875 224.695312 142.667969 C 226.539062 145.328125 228.285156 147.820312 229.769531 149.839844 C 231.332031 151.972656 235.835938 153.390625 240.601562 154.890625 C 248.667969 157.433594 257.8125 160.316406 259.769531 167.773438 C 261.59375 174.753906 256.625 184.398438 244.574219 197.265625 L 244.3125 197.019531 L 244.574219 197.265625 C 239.214844 202.988281 231.0625 207.222656 220.34375 209.859375 C 211.941406 211.933594 202.210938 212.976562 191.363281 212.976562 Z M 197.125 114.285156 C 196.835938 114.285156 196.554688 114.316406 196.273438 114.382812 C 193.996094 114.921875 192.480469 117.8125 191.761719 122.949219 C 190.816406 129.722656 190.289062 135.394531 189.824219 140.394531 C 188.558594 154.050781 187.859375 161.574219 180.46875 167.128906 C 173.355469 172.476562 160.242188 176 131.628906 182.363281 C 119.582031 185.046875 116.761719 188.339844 116.519531 190.628906 C 116.199219 193.640625 120.058594 197.144531 127.378906 200.496094 C 141.59375 207 165.695312 211.707031 187.355469 212.203125 C 199.761719 212.488281 210.804688 211.464844 220.167969 209.160156 C 230.746094 206.558594 238.78125 202.390625 244.042969 196.769531 C 250.296875 190.09375 254.691406 184.1875 257.105469 179.21875 C 259.222656 174.855469 259.882812 171.066406 259.066406 167.957031 C 257.214844 160.882812 248.273438 158.0625 240.378906 155.574219 C 235.285156 153.96875 230.882812 152.585938 229.183594 150.257812 C 227.695312 148.234375 225.949219 145.726562 224.097656 143.070312 C 219.75 136.832031 214.339844 129.070312 209.28125 123.261719 C 204.082031 117.296875 199.996094 114.277344 197.125 114.277344 Z M 197.125 114.285156 " fill-opacity="1" fill-rule="nonzero"/><path fill="#606060" d="M 192.101562 208.847656 C 188.566406 208.847656 184.9375 208.742188 181.246094 208.53125 C 157.667969 207.191406 132.578125 201.527344 120.246094 194.761719 C 114.933594 191.851562 112.460938 189.015625 112.875 186.328125 C 113.402344 182.875 118.757812 180.117188 128.785156 178.125 C 134.820312 176.921875 140.3125 175.867188 145.160156 174.933594 C 167.566406 170.613281 178.8125 168.453125 184.789062 163.554688 C 190.71875 158.683594 191.566406 150.957031 193.226562 135.574219 C 193.632812 131.820312 194.09375 127.566406 194.691406 122.804688 C 195.476562 116.542969 197.230469 113.152344 200.050781 112.4375 C 203.1875 111.644531 207.480469 114.324219 213.164062 120.636719 C 217.976562 125.972656 222.902344 132.878906 227.253906 138.96875 C 229.300781 141.835938 231.238281 144.546875 232.832031 146.613281 C 234.019531 148.15625 237.683594 149.523438 241.921875 151.097656 C 246.042969 152.632812 250.710938 154.375 254.589844 156.789062 C 259.140625 159.613281 261.6875 162.824219 262.378906 166.589844 C 263.019531 170.082031 262.011719 174.097656 259.382812 178.523438 C 256.445312 183.464844 251.371094 189.121094 244.304688 195.328125 C 238.132812 200.746094 228.984375 204.601562 217.109375 206.792969 C 209.71875 208.152344 201.214844 208.847656 192.101562 208.847656 Z M 201.164062 113.023438 C 200.847656 113.019531 200.539062 113.058594 200.234375 113.132812 C 197.765625 113.757812 196.140625 117.042969 195.410156 122.894531 C 194.8125 127.652344 194.351562 131.902344 193.945312 135.652344 C 192.25 151.230469 191.402344 159.050781 185.242188 164.101562 C 179.128906 169.117188 167.820312 171.292969 145.292969 175.632812 C 140.449219 176.5625 134.957031 177.625 128.925781 178.820312 C 116.839844 181.226562 113.914062 184.289062 113.582031 186.429688 C 113.226562 188.757812 115.648438 191.414062 120.59375 194.125 C 132.839844 200.84375 157.800781 206.472656 181.289062 207.804688 C 194.433594 208.554688 206.777344 207.957031 216.980469 206.078125 C 228.726562 203.917969 237.757812 200.117188 243.828125 194.78125 L 244.066406 195.050781 L 243.828125 194.78125 C 250.839844 188.625 255.867188 183.027344 258.765625 178.148438 C 261.304688 173.875 262.28125 170.027344 261.671875 166.710938 C 260.195312 158.667969 249.925781 154.839844 241.671875 151.757812 C 237.148438 150.089844 233.578125 148.753906 232.261719 147.054688 C 230.65625 144.972656 228.71875 142.257812 226.667969 139.386719 C 222.328125 133.308594 217.410156 126.425781 212.628906 121.109375 C 207.785156 115.738281 203.933594 113.023438 201.164062 113.023438 Z M 201.164062 113.023438 " fill-opacity="1" fill-rule="nonzero"/><g clip-path="url(#7179a84d5a)"><path fill="#606060" d="M 193.476562 204.859375 C 187.832031 204.859375 181.949219 204.613281 175.933594 204.113281 C 163.359375 203.078125 150.746094 201.027344 139.457031 198.191406 C 128.585938 195.457031 119.828125 192.175781 114.820312 188.945312 C 111.144531 186.582031 109.503906 184.292969 109.933594 182.144531 C 110.589844 178.894531 116.027344 176.34375 126.097656 174.5625 C 139.382812 172.21875 150.035156 170.742188 158.59375 169.550781 C 176.1875 167.109375 185.015625 165.886719 189.851562 160.871094 C 194.683594 155.855469 195.671875 146.898438 197.644531 129.050781 C 197.863281 127.066406 198.097656 124.96875 198.34375 122.757812 C 199.136719 115.75 200.980469 111.957031 203.988281 111.15625 C 210.738281 109.351562 221.257812 123.683594 229.707031 135.195312 C 232 138.3125 234.160156 141.257812 235.898438 143.375 C 236.746094 144.40625 239.695312 145.65625 243.109375 147.109375 C 251.390625 150.625 263.910156 155.945312 264.988281 165.515625 C 265.402344 169.207031 264.058594 173.269531 261.003906 177.582031 C 257.570312 182.417969 251.871094 187.734375 244.042969 193.390625 C 237.082031 198.417969 227.03125 201.851562 214.167969 203.585938 C 207.859375 204.433594 200.882812 204.859375 193.476562 204.859375 Z M 205.203125 111.71875 C 204.851562 111.71875 204.507812 111.761719 204.171875 111.851562 C 201.527344 112.554688 199.800781 116.253906 199.058594 122.839844 C 198.808594 125.046875 198.574219 127.144531 198.355469 129.128906 C 196.363281 147.140625 195.367188 156.179688 190.367188 161.371094 C 185.363281 166.5625 176.453125 167.800781 158.695312 170.261719 C 150.136719 171.449219 139.492188 172.921875 126.222656 175.269531 C 114.078125 177.414062 111.042969 180.269531 110.636719 182.285156 C 110.277344 184.089844 111.859375 186.183594 115.207031 188.339844 C 120.160156 191.53125 128.835938 194.78125 139.632812 197.492188 C 150.886719 200.320312 163.457031 202.363281 175.996094 203.398438 C 189.851562 204.539062 203.023438 204.359375 214.0625 202.878906 C 226.808594 201.160156 236.75 197.773438 243.609375 192.8125 C 258.167969 182.285156 265.117188 173.140625 264.269531 165.59375 C 263.242188 156.441406 250.953125 151.222656 242.824219 147.769531 C 239.179688 146.21875 236.300781 144.996094 235.339844 143.832031 C 233.589844 141.699219 231.417969 138.746094 229.128906 135.621094 C 221.660156 125.457031 211.578125 111.71875 205.203125 111.71875 Z M 205.203125 111.71875 " fill-opacity="1" fill-rule="nonzero"/></g></svg>